# Blender 4.4.3
# www.blender.org
mtllib gun4.mtl
o Cube.004
v -0.084424 1.028760 -3.493926
v 0.084424 1.028760 -3.493926
v 0.084197 0.415840 -3.633232
v 0.084310 0.722300 -3.594547
v -0.084197 0.415840 -3.633232
v 0.084424 0.969132 -3.229038
v 0.084310 0.662672 -3.329658
v -0.084310 0.662672 -3.329658
v 0.084197 0.356212 -3.368343
v -0.084310 0.722300 -3.594547
v -0.084424 0.969132 -3.229038
v -0.084197 0.356212 -3.368343
vn 1.0000 -0.0004 -0.0001
vn -0.0000 -0.1252 0.9921
vn 1.0000 -0.0003 -0.0001
vn -0.0000 -0.3119 0.9501
vn -0.0000 -0.9756 -0.2196
vn -0.0000 0.9756 0.2196
vn -1.0000 -0.0004 -0.0001
vn -1.0000 -0.0003 -0.0001
vt 0.000000 0.000000
vt 0.569062 0.250000
s 0
usemtl Material.001
f 3/1/1 7/1/1 9/1/1
f 9/1/2 7/1/2 8/1/2
f 2/1/3 7/1/3 4/1/3
f 3/1/1 4/1/1 7/1/1
f 8/1/4 7/1/4 6/1/4
f 2/1/3 6/1/3 7/1/3
f 5/1/5 3/1/5 9/1/5
f 2/2/6 1/2/6 6/2/6
f 5/1/7 12/1/7 8/1/7
f 8/1/4 6/1/4 11/1/4
f 1/1/8 10/1/8 8/1/8
f 5/1/5 9/1/5 12/1/5
f 1/2/6 11/2/6 6/2/6
f 5/1/7 8/1/7 10/1/7
f 9/1/2 8/1/2 12/1/2
f 1/1/8 8/1/8 11/1/8
